<svg width="74" height="20" viewBox="0 0 74 20" fill="none" xmlns="http://www.w3.org/2000/svg">
<path d="M18 0.625H0.75C0.335156 0.625 0 0.960156 0 1.375V18.625C0 19.0398 0.335156 19.375 0.75 19.375H18C18.4148 19.375 18.75 19.0398 18.75 18.625V1.375C18.75 0.960156 18.4148 0.625 18 0.625ZM15.8344 6.09766H14.3367C13.1625 6.09766 12.9352 6.65547 12.9352 7.47578V9.28281H15.7383L15.3727 12.1117H12.9352V19.375H10.0125V12.1141H7.56797V9.28281H10.0125V7.19687C10.0125 4.77578 11.4914 3.45625 13.6523 3.45625C14.6883 3.45625 15.5766 3.53359 15.8367 3.56875V6.09766H15.8344Z" fill="black"/>
<path d="M38.4036 0C39.5286 0.003 40.0996 0.009 40.5926 0.023L40.7866 0.03C41.0106 0.038 41.2316 0.0479999 41.4986 0.0599999C42.5626 0.11 43.2886 0.278 43.9256 0.525C44.5856 0.779 45.1416 1.123 45.6976 1.678C46.2061 2.1779 46.5995 2.78259 46.8506 3.45C47.0976 4.087 47.2656 4.813 47.3156 5.878C47.3276 6.144 47.3376 6.365 47.3456 6.59L47.3516 6.784C47.3666 7.276 47.3726 7.847 47.3746 8.972L47.3756 9.718V11.028C47.378 11.7574 47.3704 12.4868 47.3526 13.216L47.3466 13.41C47.3386 13.635 47.3286 13.856 47.3166 14.122C47.2666 15.187 47.0966 15.912 46.8506 16.55C46.6003 17.2178 46.2067 17.8226 45.6976 18.322C45.1975 18.8303 44.5929 19.2238 43.9256 19.475C43.2886 19.722 42.5626 19.89 41.4986 19.94C41.2613 19.9512 41.024 19.9612 40.7866 19.97L40.5926 19.976C40.0996 19.99 39.5286 19.997 38.4036 19.999L37.6576 20H36.3486C35.6188 20.0025 34.8891 19.9949 34.1596 19.977L33.9656 19.971C33.7282 19.962 33.4908 19.9517 33.2536 19.94C32.1896 19.89 31.4636 19.722 30.8256 19.475C30.1582 19.2244 29.5538 18.8308 29.0546 18.322C28.5456 17.8223 28.1518 17.2176 27.9006 16.55C27.6536 15.913 27.4856 15.187 27.4356 14.122C27.4244 13.8847 27.4144 13.6474 27.4056 13.41L27.4006 13.216C27.3821 12.4868 27.3738 11.7574 27.3756 11.028V8.972C27.3728 8.2426 27.3801 7.5132 27.3976 6.784L27.4046 6.59C27.4126 6.365 27.4226 6.144 27.4346 5.878C27.4846 4.813 27.6526 4.088 27.8996 3.45C28.1507 2.7819 28.5453 2.17702 29.0556 1.678C29.5547 1.16947 30.1587 0.775987 30.8256 0.525C31.4636 0.278 32.1886 0.11 33.2536 0.0599999C33.5196 0.0479999 33.7416 0.038 33.9656 0.03L34.1596 0.0239999C34.8888 0.00623271 35.6182 -0.0014347 36.3476 0.000999928L38.4036 0ZM37.3756 5C36.0495 5 34.7777 5.52678 33.84 6.46447C32.9024 7.40215 32.3756 8.67392 32.3756 10C32.3756 11.3261 32.9024 12.5979 33.84 13.5355C34.7777 14.4732 36.0495 15 37.3756 15C38.7017 15 39.9734 14.4732 40.9111 13.5355C41.8488 12.5979 42.3756 11.3261 42.3756 10C42.3756 8.67392 41.8488 7.40215 40.9111 6.46447C39.9734 5.52678 38.7017 5 37.3756 5ZM37.3756 7C37.7695 6.99993 38.1597 7.07747 38.5237 7.22817C38.8877 7.37887 39.2184 7.5998 39.497 7.87833C39.7757 8.15686 39.9967 8.48754 40.1475 8.85149C40.2983 9.21544 40.376 9.60553 40.3761 9.9995C40.3761 10.3935 40.2986 10.7836 40.1479 11.1476C39.9972 11.5116 39.7763 11.8423 39.4978 12.121C39.2192 12.3996 38.8885 12.6206 38.5246 12.7714C38.1606 12.9223 37.7705 12.9999 37.3766 13C36.5809 13 35.8179 12.6839 35.2553 12.1213C34.6926 11.5587 34.3766 10.7956 34.3766 10C34.3766 9.20435 34.6926 8.44129 35.2553 7.87868C35.8179 7.31607 36.5809 7 37.3766 7M42.6266 3.5C42.2951 3.5 41.9771 3.6317 41.7427 3.86612C41.5083 4.10054 41.3766 4.41848 41.3766 4.75C41.3766 5.08152 41.5083 5.39946 41.7427 5.63388C41.9771 5.8683 42.2951 6 42.6266 6C42.9581 6 43.276 5.8683 43.5105 5.63388C43.7449 5.39946 43.8766 5.08152 43.8766 4.75C43.8766 4.41848 43.7449 4.10054 43.5105 3.86612C43.276 3.6317 42.9581 3.5 42.6266 3.5Z" fill="black"/>
<path d="M53.375 1.4325C53.375 0.64125 54.0325 0 54.8438 0H71.9062C72.7175 0 73.375 0.64125 73.375 1.4325V18.5675C73.375 19.3587 72.7175 20 71.9062 20H54.8438C54.0325 20 53.375 19.3587 53.375 18.5675V1.4325ZM59.5538 16.7425V7.71125H56.5525V16.7425H59.5538ZM58.0538 6.4775C59.1 6.4775 59.7512 5.785 59.7512 4.9175C59.7325 4.03125 59.1013 3.3575 58.0738 3.3575C57.0463 3.3575 56.375 4.0325 56.375 4.9175C56.375 5.785 57.0262 6.4775 58.0338 6.4775H58.0538ZM64.1888 16.7425V11.6988C64.1888 11.4288 64.2087 11.1587 64.2887 10.9662C64.505 10.4275 64.9988 9.86875 65.8288 9.86875C66.915 9.86875 67.3488 10.6962 67.3488 11.9113V16.7425H70.35V11.5625C70.35 8.7875 68.87 7.4975 66.895 7.4975C65.3025 7.4975 64.5887 8.3725 64.1888 8.98875V9.02H64.1688L64.1888 8.98875V7.71125H61.1887C61.2262 8.55875 61.1887 16.7425 61.1887 16.7425H64.1888Z" fill="black"/>
</svg>
