<svg width="81" height="100" viewBox="0 0 81 100" fill="none" xmlns="http://www.w3.org/2000/svg">
<path d="M51.519 1.67482C51.5868 1.75142 51.1619 3.37521 51.0958 3.62434C44.6224 28.0433 17.9556 30.4241 4.29047 48.3616C3.45681 49.4557 2.80536 50.6618 2.02168 51.7341C1.98459 51.7849 1.8951 51.9309 1.82495 51.8615C1.2251 50.0201 0.776828 48.1101 0.479321 46.1928C-2.82228 24.9126 11.2702 4.78373 32.3375 0.72909C38.74 -0.502862 45.2754 -0.164236 51.519 1.67402V1.67482Z" fill="#0F2C70"/>
<path d="M53.2144 77.78C52.7871 76.0998 52.3074 74.4357 52.0276 72.7192C49.4677 56.994 58.4816 43.1467 61.5639 28.2931C63.0369 21.1965 63.1079 14.5489 61.0649 7.55713C60.873 6.90084 60.5118 6.20585 60.5005 5.5415C68.3268 10.2202 74.4905 17.6304 77.618 26.2194C84.2325 44.3843 76.9907 64.672 60.515 74.4889C58.6671 75.5902 55.7839 77.1301 53.7393 77.7034C53.5643 77.7526 53.3998 77.8114 53.2136 77.7792L53.2144 77.78Z" fill="#0F2C70"/>
<path d="M53.3534 2.65836C55.0119 2.37456 56.2535 3.83629 55.5117 5.38349C55.2755 5.87691 54.4572 6.32599 54.4338 6.40017C54.3862 6.54771 54.4378 6.76701 54.412 6.94197C53.9742 9.9001 53.4324 12.6027 52.4101 15.4189C45.6126 34.14 24.4412 42.6347 17.5317 61.2914C16.2981 64.622 15.7764 67.622 15.3612 71.1317C15.3516 71.2123 15.3266 71.4114 15.2371 71.409C15.0597 71.4042 12.8433 69.399 12.5377 69.1136C10.3721 67.0931 8.44037 64.751 6.77466 62.3024C6.66017 61.9331 7.23825 60.548 7.40353 60.1029C15.9103 37.2965 44.7322 33.0258 52.3488 9.31235C52.5342 8.73507 53.1413 6.95326 53.1373 6.46467C53.1349 6.14056 52.8842 6.19377 52.6898 6.02607C51.491 4.99084 51.8239 2.9212 53.3542 2.65916L53.3534 2.65836Z" fill="#F79320"/>
<path d="M38.7157 79.7973C35.7293 79.6675 32.6196 79.3208 29.7413 78.5009C29.5107 78.4356 28.773 78.2792 28.6867 78.105L28.4827 75.5677C28.4593 73.232 28.5593 70.881 28.9108 68.5719C32.3003 46.3202 56.5435 33.9345 57.6464 10.8258C57.6722 10.2848 57.7335 8.86255 57.644 8.40298C57.6013 8.18127 57.1869 8.12402 56.9587 7.96035C55.8638 7.17265 55.9775 5.4255 57.1651 4.7813C59.1307 3.71544 60.9819 6.22208 59.4073 7.83216C59.2614 7.98212 58.9695 8.01034 58.9316 8.24254C58.9453 9.10684 59.1235 9.96389 59.1727 10.8242C60.4433 32.9549 41.0715 46.8579 38.323 67.5133C37.7772 71.6147 37.9884 75.7346 38.7157 79.7981V79.7973Z" fill="#1A8C40"/>
<path d="M9.13719 95V83.48H16.5772V85.288H11.0652V88.128H15.6172V89.936H11.0652V93.192H16.5772V95H9.13719ZM27.4512 95.24C26.6085 95.24 25.8485 95.0933 25.1712 94.8C24.4992 94.5067 23.9445 94.088 23.5072 93.544C23.0752 92.9947 22.8005 92.344 22.6832 91.592L24.6832 91.288C24.8539 91.9707 25.2032 92.4987 25.7312 92.872C26.2645 93.2453 26.8779 93.432 27.5712 93.432C27.9819 93.432 28.3685 93.368 28.7312 93.24C29.0939 93.112 29.3872 92.9253 29.6112 92.68C29.8405 92.4347 29.9552 92.1333 29.9552 91.776C29.9552 91.616 29.9285 91.4693 29.8752 91.336C29.8219 91.1973 29.7419 91.0747 29.6352 90.968C29.5339 90.8613 29.4005 90.7653 29.2352 90.68C29.0752 90.5893 28.8885 90.512 28.6752 90.448L25.6992 89.568C25.4432 89.4933 25.1659 89.3947 24.8672 89.272C24.5739 89.144 24.2939 88.9707 24.0272 88.752C23.7659 88.528 23.5499 88.2453 23.3792 87.904C23.2139 87.5573 23.1312 87.1307 23.1312 86.624C23.1312 85.8827 23.3179 85.2613 23.6912 84.76C24.0699 84.2533 24.5765 83.8747 25.2112 83.624C25.8512 83.3733 26.5605 83.2507 27.3392 83.256C28.1285 83.2613 28.8325 83.3973 29.4512 83.664C30.0699 83.9253 30.5872 84.3067 31.0032 84.808C31.4192 85.3093 31.7125 85.9147 31.8832 86.624L29.8112 86.984C29.7259 86.5787 29.5605 86.2347 29.3152 85.952C29.0752 85.664 28.7792 85.4453 28.4272 85.296C28.0805 85.1467 27.7099 85.0667 27.3152 85.056C26.9312 85.0507 26.5739 85.1093 26.2432 85.232C25.9179 85.3493 25.6539 85.52 25.4512 85.744C25.2539 85.968 25.1552 86.2293 25.1552 86.528C25.1552 86.8107 25.2405 87.0427 25.4112 87.224C25.5819 87.4 25.7925 87.5413 26.0432 87.648C26.2992 87.7493 26.5579 87.8347 26.8192 87.904L28.8832 88.48C29.1659 88.5547 29.4832 88.656 29.8352 88.784C30.1872 88.912 30.5259 89.0907 30.8512 89.32C31.1765 89.5493 31.4432 89.8507 31.6512 90.224C31.8645 90.5973 31.9712 91.072 31.9712 91.648C31.9712 92.2453 31.8459 92.7707 31.5952 93.224C31.3499 93.672 31.0165 94.0453 30.5952 94.344C30.1739 94.6427 29.6912 94.8667 29.1472 95.016C28.6085 95.1653 28.0432 95.24 27.4512 95.24ZM41.2708 95V85.288H37.5428V83.48H46.9268V85.288H43.1988V95H41.2708ZM53.1659 95V83.48H55.0939V95H53.1659ZM67.1623 95.24C66.0103 95.24 65.0236 94.9893 64.2023 94.488C63.381 93.9813 62.749 93.2773 62.3063 92.376C61.869 91.4747 61.6503 90.4293 61.6503 89.24C61.6503 88.0507 61.869 87.0053 62.3063 86.104C62.749 85.2027 63.381 84.5013 64.2023 84C65.0236 83.4933 66.0103 83.24 67.1623 83.24C68.4903 83.24 69.597 83.5733 70.4823 84.24C71.3676 84.9013 71.989 85.7947 72.3463 86.92L70.4023 87.456C70.1783 86.704 69.797 86.1173 69.2583 85.696C68.7196 85.2693 68.021 85.056 67.1623 85.056C66.389 85.056 65.7436 85.2293 65.2263 85.576C64.7143 85.9227 64.3276 86.4107 64.0663 87.04C63.8103 87.664 63.6796 88.3973 63.6743 89.24C63.6743 90.0827 63.8023 90.8187 64.0583 91.448C64.3196 92.072 64.709 92.5573 65.2263 92.904C65.7436 93.2507 66.389 93.424 67.1623 93.424C68.021 93.424 68.7196 93.2107 69.2583 92.784C69.797 92.3573 70.1783 91.7707 70.4023 91.024L72.3463 91.56C71.989 92.6853 71.3676 93.5813 70.4823 94.248C69.597 94.9093 68.4903 95.24 67.1623 95.24Z" fill="#02173D"/>
</svg>
