<svg xmlns="http://www.w3.org/2000/svg" width="267.97" height="49.838"><g data-name="Group 23"><path d="M70.328 3.075a13 13 0 0 1 .313 1.89 29 29 0 0 1 .209 2.936 4 4 0 0 1-.07.716l-.174.055-1.253-.092-.209-.037a9.7 9.7 0 0 0-1.531-3.284 4.07 4.07 0 0 0-3.114-1.468 3.78 3.78 0 0 0-2.706.946 3.1 3.1 0 0 0-1 2.342 3.33 3.33 0 0 0 .991 2.259 9.76 9.76 0 0 0 4.142 2.071 19 19 0 0 1 2.568 1.061 7.5 7.5 0 0 1 2.288 1.594 6.9 6.9 0 0 1 1.434 2.193 7.6 7.6 0 0 1 .391 2.634 9.9 9.9 0 0 1-.609 3.4 5.1 5.1 0 0 1-1.062 1.67 10 10 0 0 1-1.618 1.294 7.8 7.8 0 0 1-2.271 1.074 11.4 11.4 0 0 1-3.019.33 14 14 0 0 1-2.906-.367l-2.088-.642a3.4 3.4 0 0 1-1.1-.459.7.7 0 0 1-.156-.349v-.2q0-.2-.087-2.514-.035-1.192-.035-1.688v-.7l1.618-.037q.834 2.044 1.077 2.467a6 6 0 0 0 1.19 1.52 4.9 4.9 0 0 0 1.555.92 5.5 5.5 0 0 0 1.963.341 6 6 0 0 0 2.067-.423 3.8 3.8 0 0 0 1.815-1.387 3.5 3.5 0 0 0 .686-2.067 3.46 3.46 0 0 0-1.2-2.517 13.7 13.7 0 0 0-3.932-1.911 19 19 0 0 1-4.437-2.13 6.4 6.4 0 0 1-1.949-2.506 7.3 7.3 0 0 1-.713-3.02 6.84 6.84 0 0 1 1.984-4.956 7.8 7.8 0 0 1 5.846-2.038 14.4 14.4 0 0 1 2.471.312 18 18 0 0 1 2.627.771" data-name="Path 144"/><path d="M74.921 26.232a10 10 0 0 1 .105-1.3l2.2-.4a9 9 0 0 0 .967-.294l.228-4.587q-.069-2.477-.07-3.707l.017-.44q.052-.752.052-3.78l-.046-.532.046-1.541-.035-1.6v-.789a25 25 0 0 0-.149-2.5 2.4 2.4 0 0 0-.132-.44 1.2 1.2 0 0 0-.308-.073 4 4 0 0 1-.343-.055 13 13 0 0 0-1.459-.184l-.264-.073a3.2 3.2 0 0 1-.721-.147 9 9 0 0 1-.052-.679 2.5 2.5 0 0 1 .105-.606 5 5 0 0 1 .976-.073q.627 0 .872-.018 2.125.239 3.154.257.47 0 .95.028t.845.028q.575 0 2.805-.184a3.3 3.3 0 0 1 .8-.092 7 7 0 0 1 1.081.073q.017.385.017.55a4.5 4.5 0 0 1-.07.716l-3.078.514a.58.58 0 0 0-.367.532l.039.679.013.293-.012.807-.023.624v.147a2 2 0 0 1 .035.349l-.035 2.331q.035.33.035.5 0 .092-.023.587-.012.294-.012.605 0 .275.035 1.3a6 6 0 0 0 .817.11l2.571.055h1.251l3.128.018 3.041-.092a6.6 6.6 0 0 0 1.251-.128q.035-.624.052-3.065l.034-.824-.1-3.119-.122-1.284a.53.53 0 0 0-.244-.238 10.4 10.4 0 0 0-2.436-.826 5 5 0 0 1-.626-.184 5.5 5.5 0 0 1 .139-1.046q.382-.018.469-.018l1.685.018a24 24 0 0 0 3.283.22q.383 0 .608-.018l2.258-.073.608-.037a5.6 5.6 0 0 1 1.286-.147q.5 0 1.216.055-.018.716-.087 1.3-1.592.349-2.085.5a5.6 5.6 0 0 0-.995.431l-.1.367v.312l.017.477-.023.239a5 5 0 0 0-.046.587v.459q.035.826.035.917v2.33l.017 1.762-.047 2.33q-.023.808.064 3.3v2.606l.035 2.165q0 .606-.035 1.468.363.11.675.184a13 13 0 0 1 2.457.752l.052 1.285q-.695.018-.816.018a19 19 0 0 1-1.911-.11 45 45 0 0 0-4.587-.165 37 37 0 0 0-3.683.238 2 2 0 0 1-.591-.11 8 8 0 0 1 .087-1.193l1.34-.33 1.41-.238q.209-.055.539-.165a46 46 0 0 0 .209-4.936l.017-1.56a22 22 0 0 1-.1-2.331q-.643-.055-1.39-.073l-8.062-.092-.156-.018-.133-.009a3 3 0 0 0-.278.018q-.452.019-.764.018h-.489a2.6 2.6 0 0 0-.747.128l-.087 1.376v.239q.035.5.035.642v5.688a9 9 0 0 0 .052.972l.157.11 2.57.422a2 2 0 0 0 .3.092 1.1 1.1 0 0 1 .385.165q.052.422.053.569a4.3 4.3 0 0 1-.07.661q-.627.018-1.063.018-.383 0-.714-.018a2 2 0 0 1-.3-.018l-2.457-.11q-.871-.091-2.439-.092l-.366.018q-.732.037-.854.055a28 28 0 0 1-3.38.147" data-name="Path 145"/><path d="M105.336 2.542q.992.055 1.722.165a22 22 0 0 0 3.184.2q.627 0 3.219-.11 3.88-.165 7.012-.165l3.149-.037a26 26 0 0 1 3.132.275 1.48 1.48 0 0 1 .313.991v3.78l.035.752q0 .11-.018.33l-.713.037q-.14 0-.592-.037-.157-.367-.418-1.083l-.7-1.3a8.5 8.5 0 0 0-1.114-1.688 4.5 4.5 0 0 0-1.113-.147q-.174-.018-1.062-.092-1.618-.147-3.48-.147-2.123 0-3.793.073-.052.459-.052 3.615l.017 3.083v2.312a6 6 0 0 0 .75.055q3.121 0 4.446-.128a4.1 4.1 0 0 0 1.639-.358 1.9 1.9 0 0 0 .558-.8 26 26 0 0 0 .61-2.7l.226-.018 1.009.018q.069 1.633.07 2.477 0 1.927-.026 2.477t-.026.863q0 .5.052 1.587t.052 1.624v.4h-1.235q-.07-.293-.262-1.211a7.7 7.7 0 0 0-.628-2.129 1.27 1.27 0 0 0-.7-.5 13 13 0 0 0-2.581-.128 39 39 0 0 0-3.958.147v.624q0 2.184.07 3.633l-.035 3.963a.99.99 0 0 0 .47.954q.713.385 4.367.385a18.7 18.7 0 0 0 4.106-.385 4.04 4.04 0 0 0 2.053-1.23 9.45 9.45 0 0 0 1.966-3.45q.539-.055.887-.055.192 0 .574.018l-.085.771-.1.551-.634 3.468-.308 2.092q-1.132.055-1.793.055-.976 0-5.207-.184-2.977-.128-7.174-.128-2.089 0-5.137.184h-.731l-2.107.073v-1.252a10 10 0 0 1 1.322-.2 8 8 0 0 0 2.506-.587 4 4 0 0 0 .191-1.34q0-.312-.017-1.064l.017-.569-.052-6.918.017-2.073-.087-2.936.017-2.074L109 5.076q0-.092-.035-.367a.84.84 0 0 0-.522-.257q-.192-.037-.522-.11a11 11 0 0 0-1.914-.257q-.331-.018-.765-.073Z" data-name="Path 146"/><path d="M131.348 25.166a3.8 3.8 0 0 1 1.34-.376 7 7 0 0 0 1.6-.395 5 5 0 0 0 .1-.532q.035-.257.035-1.762l-.011-4.087.069-2.2-.035-1.707.035-.991q.053-2 .052-3.743 0-3.816-.087-4.881l-1.027-.22a18 18 0 0 1-1.879-.184l-.035-1.1.069-.2a9.7 9.7 0 0 1 1.6-.147q.4 0 1.618-.018 1.252.11 1.357.11l.922-.055 2.175-.11a40 40 0 0 1 4.3-.22 8.1 8.1 0 0 1 5.672 1.918 5.8 5.8 0 0 1 2.105 4.395 5.48 5.48 0 0 1-1.136 3.367 6.88 6.88 0 0 1-3.494 2.284q.208.385.555.9.728 1.1 1.179 1.872l2.774 4.753a14.3 14.3 0 0 0 1.366 2.211 4.1 4.1 0 0 0 1.331.707 5.4 5.4 0 0 1 1.2.624 1.8 1.8 0 0 1 .1.551q0 .165-.018.422h-.47l-.348.019-.9-.128h-.713a8.7 8.7 0 0 0-1.375-.092l-1.74-.018q-.192 0-1.218.128-.47.055-.748.092l-.592-1.211q-.731-1.376-1.027-2.055-.766-1.78-2.627-5.67a7.1 7.1 0 0 0-1.218-2.037 3.1 3.1 0 0 0-1.792-.385q-.348 0-1.183.037-.052.532-.052 1.266l.087 4.074-.1 3.45a3.8 3.8 0 0 0 1.27.477 14 14 0 0 1 2.332.7 10 10 0 0 1-.069 1.358q-.33-.018-.418-.018l-.713.037q-3.741-.348-4.437-.349-.452 0-.644.018l-2.4.165a17 17 0 0 1-2 .129h-.748q-.035-.458-.035-.587a4 4 0 0 1 .052-.569m7.83-11.872q.835.037 1.218.037 2.958 0 4.193-1.119a3.84 3.84 0 0 0 1.236-2.991 7.6 7.6 0 0 0-.3-2.174 3.9 3.9 0 0 0-.755-1.514 4 4 0 0 0-1.683-1.083 7.9 7.9 0 0 0-2.447-.275 9 9 0 0 0-1.371.092l-.035.349.035 2.477-.052 1.5.017 2q-.035.844-.052 2.184Z" data-name="Path 147"/><path d="m154.438 3.881-.087-1.138a.8.8 0 0 1 .331-.11q1.444.1 2.888.148.591.017.766.017.626 0 1.462-.055l2.262-.11a.33.33 0 0 1 .156.2l-.139.844a7 7 0 0 1-.644.385q-.7.4-.7.661a1.5 1.5 0 0 0 .174.606 7 7 0 0 1 .278.752q.3.9 1.671 4.367l4.506 11.083q.887-1.743 2.766-5.872L167.584 9.2q-.71-1.817-1.234-2.991-.175-.385-.3-.734-.1-.183-.28-.541a1.43 1.43 0 0 0-.542-.587 7.7 7.7 0 0 0-1.749-.578l.07-1.1q.557 0 1.531.055 1.409.11 1.81.11l2.436-.037 3.01-.184a1.2 1.2 0 0 0 .244.018l.018.624v.22a.9.9 0 0 1-.07.294 5.6 5.6 0 0 1-.94.165 1.1 1.1 0 0 0-.635.2.5.5 0 0 0-.182.385 3.3 3.3 0 0 0 .365 1.34q.156.349.417 1.064.87 2.349 1.34 3.431l1.218-2.661a25 25 0 0 0 1.1-2.7 1.2 1.2 0 0 0 .052-.312v-.11a1.5 1.5 0 0 0-.383-.33 10 10 0 0 0-1.479-.477 6 6 0 0 1-.035-.532 5 5 0 0 1 .052-.605q.574 0 3.254.092 1.583.055 2.019.055.365 0 .644-.009.278-.009.592-.009l.035.147-.052.826-.035.092a11.2 11.2 0 0 0-2.245.826 2.5 2.5 0 0 0-.7.844q-.87 1.615-3.219 6.753l.069.165 1.114 2.716 1.9 4.716q.3.7.417 1.028l2.193-6.055 3.062-8.239.487-1.541a1.3 1.3 0 0 0 .035-.294l-.052-.312q-.592-.2-.966-.3a2.2 2.2 0 0 1-.653-.284q-.052-.606-.052-.752a.9.9 0 0 1 .122-.386l.278-.037 2.61.11 1.722-.11.365.055a4 4 0 0 1 .052.587 1 1 0 0 1-.122.532.7.7 0 0 1-.348.22 3 3 0 0 0-.975.7 4.8 4.8 0 0 0-.54 1.229q-1.514 4.294-3.123 8.276t-4.792 12.68l-1.737.018a7 7 0 0 0-.383-1.119q-.505-1.192-.592-1.5l-1.923-4.707q-.47-1.174-.766-1.743a9 9 0 0 1-.139-.257q-.035.092-1.844 3.679t-2.651 5.609l-1.775.018q-.627-2.019-2.453-6.2l-5.619-13.872a11.3 11.3 0 0 0-1.271-2.514 1.7 1.7 0 0 0-.522-.312q-.14-.055-.4-.165" data-name="Path 148"/><path d="M186.888 14.121a13.3 13.3 0 0 1 .835-4.569 10.9 10.9 0 0 1 1.7-3.028 11.4 11.4 0 0 1 2.747-2.45 12 12 0 0 1 3.373-1.541 14.7 14.7 0 0 1 3.843-.468 13.06 13.06 0 0 1 6.277 1.431 11 11 0 0 1 4.191 3.872 12.4 12.4 0 0 1 1.982 6.661 12.82 12.82 0 0 1-3.347 8.9q-3.347 3.707-9.311 3.707a18 18 0 0 1-2.764-.2 9.4 9.4 0 0 1-1.7-.4q-1.321-.458-1.478-.532a14.7 14.7 0 0 1-3.043-2.33 12 12 0 0 1-1.947-2.7 16 16 0 0 1-.991-3.046 13.3 13.3 0 0 1-.365-3.3m11.841-10.239a4.87 4.87 0 0 0-2.677.743 5.8 5.8 0 0 0-1.755 1.642 10.3 10.3 0 0 0-1.407 3.331 20 20 0 0 0-.417 4.395 14.5 14.5 0 0 0 .121 2.257q.035.22.1.752a10.7 10.7 0 0 0 .365 1.982 21 21 0 0 0 1.06 2.881 7.3 7.3 0 0 0 1.546 1.853 5 5 0 0 0 1.512.872 5.3 5.3 0 0 0 1.981.394 6.86 6.86 0 0 0 3.484-.926 6.45 6.45 0 0 0 2.58-3.147 14.5 14.5 0 0 0 .974-5.78q0-1.468-.191-3.982l-.087-.349q-.052-.147-.173-.752a8.1 8.1 0 0 0-2.459-4.588 6.7 6.7 0 0 0-4.562-1.578" data-name="Path 149"/><path d="M215.093 14.121a13.3 13.3 0 0 1 .834-4.569 10.9 10.9 0 0 1 1.7-3.028 11.4 11.4 0 0 1 2.747-2.45 12 12 0 0 1 3.373-1.541 14.7 14.7 0 0 1 3.843-.468 13.06 13.06 0 0 1 6.277 1.431 11 11 0 0 1 4.19 3.872 12.4 12.4 0 0 1 1.982 6.661 12.82 12.82 0 0 1-3.347 8.9q-3.348 3.707-9.311 3.707a18 18 0 0 1-2.764-.2 9.4 9.4 0 0 1-1.7-.4q-1.322-.458-1.478-.532a14.7 14.7 0 0 1-3.043-2.33 12 12 0 0 1-1.948-2.7 16 16 0 0 1-.991-3.046 13.3 13.3 0 0 1-.365-3.3m11.843-10.246a4.87 4.87 0 0 0-2.676.743 5.75 5.75 0 0 0-1.755 1.642 10.3 10.3 0 0 0-1.407 3.331 19.8 19.8 0 0 0-.417 4.395 14.5 14.5 0 0 0 .122 2.257q.036.222.1.752a10.6 10.6 0 0 0 .365 1.982 21 21 0 0 0 1.06 2.881 7.3 7.3 0 0 0 1.547 1.853 5 5 0 0 0 1.512.872 5.3 5.3 0 0 0 1.981.394 6.86 6.86 0 0 0 3.484-.926 6.45 6.45 0 0 0 2.58-3.147 14.5 14.5 0 0 0 .974-5.78q0-1.468-.191-3.982l-.087-.349a8 8 0 0 1-.174-.752 8.1 8.1 0 0 0-2.459-4.588 6.7 6.7 0 0 0-4.562-1.578" data-name="Path 150"/><path d="M242.62 24.781q.26-.073 1.079-.22a4.3 4.3 0 0 0 2.123-.788 2 2 0 0 0 .4-1.192q.016-.22.122-5.592l-.018-2.016.018-2.438-.053-6.251v-.733a1.02 1.02 0 0 0-.243-.733q-.122-.128-.679-.128a6 6 0 0 0-1.043.11 11 11 0 0 0-1.375.147l-.33.055-.018-1.615a20.6 20.6 0 0 1 2.941-.679 46.5 46.5 0 0 1 7.795-.55 25 25 0 0 1 5.655.458 11.4 11.4 0 0 1 4.419 2.127 12.3 12.3 0 0 1 3.419 4.373 12.8 12.8 0 0 1 1.14 5.418 12.5 12.5 0 0 1-1.531 6.353 10.55 10.55 0 0 1-9.883 5.382l-3.567-.148-1.044-.05-1.409.033-.417-.033-1.462.033-1.931-.018q-.1 0-1.775.117-.558.033-1.462.049-.557 0-.835.017-.035-.4-.034-1.486m8.438-20.416q-.035.568-.035.806l.035 3.116v2.712q.035 1.319.035 2.309l-.035 1.741.052 2.914-.052 1.8q0 2.511.887 3.409a4.8 4.8 0 0 0 3.55 1.283 6.9 6.9 0 0 0 2.54-.348 7 7 0 0 0 2.706-1.85 7.8 7.8 0 0 0 1.522-3.27 18.2 18.2 0 0 0 .522-4.369 14.04 14.04 0 0 0-1.123-6.045 8.05 8.05 0 0 0-3.071-3.526 9.25 9.25 0 0 0-7.534-.679" data-name="Path 151"/><path d="M73.596 32.197a2 2 0 0 1 .26-.036q.385 0 1.268.048.464.012.634.012.249 0 1.053-.048l1.924-.119q.759-.072 1.766-.072a6.34 6.34 0 0 1 2.83.531 3.63 3.63 0 0 1 1.624 1.663 5 5 0 0 1 .572 2.253 4.62 4.62 0 0 1-1.245 3.231 4.32 4.32 0 0 1-3.35 1.359 3.3 3.3 0 0 1-.985-.125 3.5 3.5 0 0 1-.906-.483.62.62 0 0 1-.26-.322.26.26 0 0 1 .124-.119.8.8 0 0 1 .328.072 2.8 2.8 0 0 0 .974.143 3.3 3.3 0 0 0 1.692-.465 2.96 2.96 0 0 0 1.205-1.323 4.2 4.2 0 0 0 .408-1.811 4.06 4.06 0 0 0-.429-1.805 3.8 3.8 0 0 0-1.13-1.4 3.4 3.4 0 0 0-1.215-.5 5.7 5.7 0 0 0-1.271-.2 3.54 3.54 0 0 0-1.661.215l-.011.167.034 1.348-.011.238q-.023.322-.023.99 0 2.433.068 3.029v.668l.147 5.451q0 .12-.028.441c-.028.321-.028.4-.028.561a3.2 3.2 0 0 0 .091.871q.272.083 1.585.394.611.155.668.179a.33.33 0 0 1 .159.155.4.4 0 0 1-.119.233.53.53 0 0 1-.289.054q-.136 0-.634-.06a15 15 0 0 0-1.528-.107l-1.992.084-1.189-.036q-.114 0-.657.024l-.011-.31 1.471-.3a.93.93 0 0 0 .441-.215 1.3 1.3 0 0 0 .113-.656q0-.107.011-.465.011-.25.011-.692 0-1.407-.113-6-.046-2.147-.045-4.365v-.2a1.57 1.57 0 0 0-.249-1.085 4.5 4.5 0 0 0-2.094-.644.6.6 0 0 1-.057-.215.5.5 0 0 1 .068-.227" data-name="Path 152"/><path d="M92.749 32.101a1.3 1.3 0 0 1 .057.31 1 1 0 0 1-.034.215 1.8 1.8 0 0 1-.475.084q-.079 0-.266-.018t-.3-.018a1.4 1.4 0 0 0-.826.215.54.54 0 0 0-.249.346l-.113 1.362.034 5.914a24.5 24.5 0 0 0 .2 4.044 3 3 0 0 0 .645 1.308 3.3 3.3 0 0 0 1.364.848 5.1 5.1 0 0 0 1.772.334 6 6 0 0 0 2.949-.585 3.38 3.38 0 0 0 1.472-1.619 8.3 8.3 0 0 0 .447-3.136q0-.06-.034-.956v-.341q0-.191.022-.747t.023-.651l-.17-3.429a12 12 0 0 0-.187-2.043.96.96 0 0 0-.311-.466 4.6 4.6 0 0 0-1.675-.6 1.3 1.3 0 0 1-.068-.346 8 8 0 0 1 .872-.048q.453 0 .951.036.747.06.815.06l1.789-.06.351.012-.011.43a3.84 3.84 0 0 0-1.664.448 1.3 1.3 0 0 0-.272.95q0 .37.045 1.613l.079 2.473-.011.98.034 1.242a26 26 0 0 1-.124 3.19 6.8 6.8 0 0 1-.515 1.876 3.9 3.9 0 0 1-.968 1.248 5 5 0 0 1-1.692.914 6.5 6.5 0 0 1-2.089.358 8 8 0 0 1-2.332-.239 5.9 5.9 0 0 1-2.072-1.087 3.94 3.94 0 0 1-1.064-1.338 6.55 6.55 0 0 1-.4-2.581v-.824l-.034-3.345.034-2.7v-1.816a1.86 1.86 0 0 0-.181-.968.4.4 0 0 0-.362-.191l-.668.012a1.7 1.7 0 0 1-.951-.167.6.6 0 0 1-.034-.191.21.21 0 0 1 .068-.167.5.5 0 0 1 .306-.1h.294l.759-.012h1.788Z" data-name="Path 153"/><path d="M102.868 32.65v-.37a2.4 2.4 0 0 1 .306-.06l1.064-.063q1.325-.125 2.966-.2.656-.024 2.071-.024a9.7 9.7 0 0 1 2.818.3 3.8 3.8 0 0 1 1.941 1.331 3.3 3.3 0 0 1 .64 1.976q0 1.767-2.389 2.972l-.056.089a5.7 5.7 0 0 1 2 .968 4.2 4.2 0 0 1 1.2 1.517 4.1 4.1 0 0 1 .306 1.72 4.19 4.19 0 0 1-1.534 3.172 6.06 6.06 0 0 1-4.228 1.392h-1.687l-1.709.06q-2.264.024-2.649.024t-.781-.036v-.135a.3.3 0 0 1 .057-.208.55.55 0 0 1 .26-.122 9.6 9.6 0 0 0 1.6-.423.58.58 0 0 0 .255-.364 12.6 12.6 0 0 0 .136-2.455q0-.178-.011-.453-.023-.8-.023-.918V41.1q0-3.146-.068-5.494l-.011-2.4-.011-.3q-.963-.143-1.7-.179a3.8 3.8 0 0 1-.77-.083m4.482 6.028a5.8 5.8 0 0 0 1.191.119q2.45 0 3.324-1.134a3.7 3.7 0 0 0 .873-2.256 3.6 3.6 0 0 0-.153-1.021 2.3 2.3 0 0 0-.545-.937 2.4 2.4 0 0 0-.97-.621 6 6 0 0 0-2.019-.346 6.8 6.8 0 0 0-1.792.227q-.011.251-.011.37c0 .119.008.306.023.68q.011.358.011.716l-.034 1.444.011.86.079 1.683Zm2.665 8.117a4.6 4.6 0 0 0 1.882-.5 3.8 3.8 0 0 0 .833-.686 3.5 3.5 0 0 0 .749-1.188 3.7 3.7 0 0 0 .266-1.337 5 5 0 0 0-.187-1.206 2.98 2.98 0 0 0-1.968-2.155 5.2 5.2 0 0 0-1.95-.352 15 15 0 0 0-2.313.084q-.012.275-.012.406l.012.442-.012.9v1.015q.034 2.805.125 3.319a1.37 1.37 0 0 0 .618.883 3.7 3.7 0 0 0 1.956.382" data-name="Path 154"/><path d="M116.938 47.5a.75.75 0 0 1 .09-.322 10 10 0 0 1 1.72-.334.98.98 0 0 0 .713-.263 3.1 3.1 0 0 0 .136-1.147l.079-3.154-.011-2.139.011-2.8V36.6q.011-2.521-.023-3.142a1.4 1.4 0 0 0-.091-.334 2.6 2.6 0 0 0-.495-.191q-.2-.048-1.78-.347-.011-.132-.011-.191c0-.059 0-.111.011-.191q.215 0 .7.027l1.723.068 1 .024.295-.012q.057 0 .329.024.669 0 .771-.012l.913-.072q.918 0 1.292.036a2.2 2.2 0 0 1-.079.466q-.125.024-1.177.066a4.2 4.2 0 0 0-1.211.137q-.261.155-.26.955 0 .191-.023.776v.716l.011 2.208v.752l.023 3.951-.034 3.366.011.74q0 .358.113.442.283.012 1.664.024h.77l1.958-.072a3.4 3.4 0 0 0 1.1-.161 5.2 5.2 0 0 0 1.1-.806 3.8 3.8 0 0 0 .725-.883q.056-.1.192-.286a7 7 0 0 0 .577-1.241h.374q-.068.43-.147.812-.328 1.683-.453 2.805-.023.239-.045.442l-4.233-.131q-5.456 0-6.475.107-.317.024-.668.024Z" data-name="Path 155"/><path d="M130.578 47.05a1.7 1.7 0 0 1 .51-.131q1.732-.119 1.981-.436a9.1 9.1 0 0 0 .249-3.065l-.011-1.254V40.85l-.045-1.446.023-.848-.011-.932v-1.1l-.022-.49.022-.621q.011-.215.011-.5 0-.753-.068-1.589a1.7 1.7 0 0 0-.125-.323 3.7 3.7 0 0 0-1.353-.3 3.4 3.4 0 0 1-1.058-.173q-.09-.072-.1-.37h.953l3 .072q1.156 0 3.084-.072a3 3 0 0 1-.023.358 7 7 0 0 1-.758.131 5.6 5.6 0 0 0-1.313.251.4.4 0 0 0-.215.2 2.1 2.1 0 0 0-.136.8l-.057 1.541.046 5.316v2.1q-.023.992-.023 1.35a14 14 0 0 0 .063 1.709 1 1 0 0 0 .215.532 1.1 1.1 0 0 0 .5.257 4.3 4.3 0 0 0 .815.143 1.33 1.33 0 0 1 .8.191 1.3 1.3 0 0 1 .034.263v.1q-1.032.036-1.519.036-.283 0-1.009-.036l-1.564.024-2.664-.012h-.208Z" data-name="Path 156"/><path d="M151.711 32.818a13 13 0 0 1 .136 1.886q0 .191-.011.513a1.2 1.2 0 0 1-.238.036 1 1 0 0 1-.192-.024 4.17 4.17 0 0 0-1.551-2.149 4.53 4.53 0 0 0-2.66-.752 4.3 4.3 0 0 0-1.415.2 5.8 5.8 0 0 0-1.788 1.021 6 6 0 0 0-1.3 1.552 8 8 0 0 0-.844 2.185 11 11 0 0 0-.311 2.62 10.5 10.5 0 0 0 .736 4.22 4.8 4.8 0 0 0 2.015 2.376 5.27 5.27 0 0 0 2.581.71l.532-.012a8 8 0 0 0 1.234-.227 5.6 5.6 0 0 0 1.364-.591 4.6 4.6 0 0 0 1.052-.961 6 6 0 0 0 .877-1.445l.136-.048a.4.4 0 0 1 .17.072 5 5 0 0 1-.023.37q-.475 2.017-.69 2.757-.181.048-.453.143a10.7 10.7 0 0 1-3.543.478 10.4 10.4 0 0 1-2.677-.257 10.7 10.7 0 0 1-1.936-.8 6.3 6.3 0 0 1-1.839-1.438 6.8 6.8 0 0 1-1.279-2.262 8.8 8.8 0 0 1-.487-2.978 8.4 8.4 0 0 1 .385-2.668 9.4 9.4 0 0 1 1.189-2.31 7.7 7.7 0 0 1 1.9-1.946 7 7 0 0 1 2.428-1.1 12.6 12.6 0 0 1 2.66-.215 7.8 7.8 0 0 1 2.366.352 4.4 4.4 0 0 1 1.483.686" data-name="Path 157"/><path d="M167.818 32.696q.091.788.091.907l-.046 1.063a8 8 0 0 1-.056.871.4.4 0 0 1-.17.048l-.1-.024a4.4 4.4 0 0 0-1.228-2.435 3.08 3.08 0 0 0-2.111-.764 3 3 0 0 0-2.117.764 2.35 2.35 0 0 0-.827 1.779 2.08 2.08 0 0 0 .578 1.421 13 13 0 0 0 2.954 1.929 19 19 0 0 1 2.592 1.615 4.03 4.03 0 0 1 1.573 3.292 4.85 4.85 0 0 1-.628 2.4 4.17 4.17 0 0 1-1.693 1.691 6 6 0 0 1-2.818.568 8.5 8.5 0 0 1-2.932-.513 3.3 3.3 0 0 1-1.008-.5.58.58 0 0 1-.181-.406 3 3 0 0 1 .023-.334q.158-1.408.17-2.316a2.2 2.2 0 0 1 .079-.657.18.18 0 0 1 .17-.084.2.2 0 0 1 .164.078.6.6 0 0 1 .085.293 4.13 4.13 0 0 0 1.29 2.626 3.6 3.6 0 0 0 2.615 1.158 3.5 3.5 0 0 0 1.647-.394 2.85 2.85 0 0 0 1.177-1.14 2.9 2.9 0 0 0 .425-1.45 2.75 2.75 0 0 0-.645-1.767 9.2 9.2 0 0 0-2.592-1.868 19 19 0 0 1-2.536-1.558 5.8 5.8 0 0 1-1.426-1.7 3.5 3.5 0 0 1-.351-1.611 3.69 3.69 0 0 1 1.245-2.811 4.72 4.72 0 0 1 3.339-1.152 6.4 6.4 0 0 1 1.992.275 4.7 4.7 0 0 1 1.256.7" data-name="Path 158"/><path d="M183.337 32.818a13 13 0 0 1 .136 1.886c0 .127 0 .3-.011.513a1.2 1.2 0 0 1-.238.036 1 1 0 0 1-.192-.024 4.17 4.17 0 0 0-1.551-2.149 4.53 4.53 0 0 0-2.66-.752 4.3 4.3 0 0 0-1.415.2 5.8 5.8 0 0 0-1.788 1.021 6 6 0 0 0-1.3 1.552 8 8 0 0 0-.843 2.185 11 11 0 0 0-.311 2.62 10.5 10.5 0 0 0 .735 4.22 4.8 4.8 0 0 0 2.015 2.376 5.27 5.27 0 0 0 2.581.71l.532-.012a8 8 0 0 0 1.234-.227 5.6 5.6 0 0 0 1.364-.591 4.6 4.6 0 0 0 1.052-.961 6 6 0 0 0 .877-1.445l.136-.048a.4.4 0 0 1 .17.072 5 5 0 0 1-.023.37q-.475 2.017-.69 2.757-.181.048-.453.143a10.7 10.7 0 0 1-3.543.478 10.4 10.4 0 0 1-2.677-.257 10.7 10.7 0 0 1-1.935-.8 6.3 6.3 0 0 1-1.84-1.438 6.8 6.8 0 0 1-1.279-2.262 8.8 8.8 0 0 1-.486-2.978 8.4 8.4 0 0 1 .385-2.668 9.4 9.4 0 0 1 1.189-2.31 7.7 7.7 0 0 1 1.9-1.946 7 7 0 0 1 2.428-1.1 12.6 12.6 0 0 1 2.66-.215 7.8 7.8 0 0 1 2.366.352 4.4 4.4 0 0 1 1.483.686" data-name="Path 159"/><path d="m185.092 47.619.011-.263a2.3 2.3 0 0 1 .894-.286 3.9 3.9 0 0 0 1.018-.221.65.65 0 0 0 .306-.317 2.1 2.1 0 0 0 .159-.8l-.023-.908.011-.836-.023-.98q0-.609.034-1.523t.034-.973V37.25q0-.777.033-1.678t.034-1.249a8 8 0 0 0-.045-1.195.37.37 0 0 0-.17-.239 3 3 0 0 0-.815-.132q-.532-.048-.735-.084a.6.6 0 0 1-.057-.215q0-.1.011-.227.271-.024.419-.024l1.064.012q1.132 0 2.4-.1.623-.048 1.879-.084a1 1 0 0 1 .023.2.3.3 0 0 1-.051.185.28.28 0 0 1-.176.089 3.8 3.8 0 0 0-1.749.388 2.03 2.03 0 0 0-.266 1.307q0 1.934.057 3.987l.045 1.122a10 10 0 0 0 1.472.119q.385.024.453.024l1.664-.024 1.1.036 2.875-.1a3.5 3.5 0 0 0 .645-.048q.068-2.07.068-4.009a16 16 0 0 0-.08-2.2.41.41 0 0 0-.158-.274q-.068-.035-1.177-.19-.192-.024-.362-.06a1.4 1.4 0 0 1-.056-.416 4 4 0 0 1 .487-.061l.747.043q1.03.053 2.072.053.668 0 2.219-.119a2.4 2.4 0 0 1-.057.43 3.4 3.4 0 0 1-1.03.227 2 2 0 0 0-.645.131.84.84 0 0 0-.215.68c0 .08 0 .167.011.263q.011.43.011.561v1.373l.011.86-.022 1.11.011 2.077-.022 1.958q0 .585.034 1.827l-.011 1.612a3.5 3.5 0 0 0 .136 1.158.43.43 0 0 0 .226.239l.917.215a2.7 2.7 0 0 1 .809.292.35.35 0 0 1 .13.269l-.034.143-.057.012a.6.6 0 0 1-.147-.024 13.6 13.6 0 0 0-2.592-.239q-1.064 0-1.511.036t-1.862.263a2 2 0 0 1-.023-.227 1.5 1.5 0 0 1 .023-.227 2.8 2.8 0 0 1 1.109-.3 1.45 1.45 0 0 0 .894-.382.86.86 0 0 0 .216-.633l-.012-1.719q.034-.776.034-.848 0-1.014-.034-2.96-.034-.167-.125-.2a17 17 0 0 0-3.011.048q-.543.036-.815.036t-1.138-.03-1.6-.03q-.4 0-.668.012l-.577.012a.47.47 0 0 0-.356.107.6.6 0 0 0-.1.394l.011.836q0 .2-.057 2.256-.011.418-.011.692a13 13 0 0 0 .113 2.173.53.53 0 0 0 .2.346 4.4 4.4 0 0 0 .883.251 6 6 0 0 1 .792.227l.068.119a.12.12 0 0 1-.045.1.28.28 0 0 1-.192.06q-.091.001-.215-.006c-.124-.007-.246-.01-.487-.018q-.578-.012-1.437-.084-.555-.048-.985-.048-.725 0-2.321.082-.305.014-.521.014" data-name="Path 160"/><path d="M203.335 39.801a7.7 7.7 0 0 1 .277-2.167 9.2 9.2 0 0 1 .934-2.059 6.8 6.8 0 0 1 1.585-1.856 8.7 8.7 0 0 1 2.57-1.319 9.2 9.2 0 0 1 2.92-.394 8.2 8.2 0 0 1 2.326.334 8 8 0 0 1 2.066.931 7.5 7.5 0 0 1 1.856 1.838 6.5 6.5 0 0 1 .973 1.85 8.5 8.5 0 0 1 .43 2.686 10 10 0 0 1-.289 2.614 7.1 7.1 0 0 1-.968 2.053 9 9 0 0 1-1.822 1.815 6.8 6.8 0 0 1-2.139 1.116 8.7 8.7 0 0 1-2.762.424 9 9 0 0 1-2.682-.37 7.6 7.6 0 0 1-4.844-4.763 8.4 8.4 0 0 1-.431-2.734m7.855 7.425a7.5 7.5 0 0 0 1.976-.28 4.85 4.85 0 0 0 1.816-.931 5 5 0 0 0 1.24-1.48 8 8 0 0 0 .719-2.131 12.7 12.7 0 0 0 .272-2.6 11.7 11.7 0 0 0-.453-3.211 5.9 5.9 0 0 0-1.143-2.155 5.45 5.45 0 0 0-1.913-1.468 5.6 5.6 0 0 0-2.388-.519 5.9 5.9 0 0 0-2.015.358 5 5 0 0 0-1.619.913 5.5 5.5 0 0 0-1.177 1.576 9.1 9.1 0 0 0-.827 2.25 10 10 0 0 0-.283 2.173 10.3 10.3 0 0 0 .283 2.244 8.6 8.6 0 0 0 .776 2.173 6.8 6.8 0 0 0 1.211 1.629 5.1 5.1 0 0 0 1.613 1.086 4.9 4.9 0 0 0 1.913.376" data-name="Path 161"/><path d="M221.449 39.801a7.7 7.7 0 0 1 .277-2.167 9.2 9.2 0 0 1 .934-2.059 6.8 6.8 0 0 1 1.584-1.856 8.7 8.7 0 0 1 2.57-1.319 9.2 9.2 0 0 1 2.92-.394 8.2 8.2 0 0 1 2.326.334 8 8 0 0 1 2.066.931 7.5 7.5 0 0 1 1.857 1.838 6.5 6.5 0 0 1 .973 1.85 8.5 8.5 0 0 1 .43 2.686 10 10 0 0 1-.288 2.614 7.1 7.1 0 0 1-.968 2.053 9 9 0 0 1-1.822 1.815 6.8 6.8 0 0 1-2.139 1.116 8.7 8.7 0 0 1-2.762.424 9 9 0 0 1-2.683-.37 7.6 7.6 0 0 1-4.845-4.763 8.4 8.4 0 0 1-.43-2.734m7.855 7.425a7.5 7.5 0 0 0 1.975-.28 4.8 4.8 0 0 0 1.816-.931 4.95 4.95 0 0 0 1.24-1.48 8 8 0 0 0 .719-2.131 12.7 12.7 0 0 0 .272-2.6 11.7 11.7 0 0 0-.453-3.211 5.9 5.9 0 0 0-1.143-2.155 5.44 5.44 0 0 0-1.913-1.468 5.6 5.6 0 0 0-2.389-.519 5.9 5.9 0 0 0-2.015.358 5 5 0 0 0-1.619.913 5.5 5.5 0 0 0-1.177 1.576 9.1 9.1 0 0 0-.826 2.25 10 10 0 0 0-.283 2.173 10.3 10.3 0 0 0 .283 2.244 8.6 8.6 0 0 0 .776 2.173 6.8 6.8 0 0 0 1.211 1.629 5.1 5.1 0 0 0 1.613 1.086 4.9 4.9 0 0 0 1.913.376" data-name="Path 162"/><path d="M238.621 47.5a.75.75 0 0 1 .091-.322 10 10 0 0 1 1.72-.334.98.98 0 0 0 .713-.263 3.1 3.1 0 0 0 .136-1.147l.079-3.154-.011-2.139.011-2.8V36.6q.011-2.521-.023-3.142a1.4 1.4 0 0 0-.091-.334 2.6 2.6 0 0 0-.494-.191q-.2-.048-1.78-.347-.012-.132-.011-.191c.001-.059 0-.111.011-.191q.216 0 .7.027l1.723.068 1 .024.295-.012q.056 0 .329.024.669 0 .771-.012l.907-.072q.918 0 1.292.036a2.2 2.2 0 0 1-.079.466q-.124.024-1.177.066a4.2 4.2 0 0 0-1.211.137q-.26.155-.26.955 0 .191-.023.776v.716l.011 2.208v.752l.023 3.951-.034 3.366.011.74q0 .358.113.442.283.012 1.664.024h.77l1.958-.072a3.4 3.4 0 0 0 1.1-.161 5.2 5.2 0 0 0 1.1-.806 3.8 3.8 0 0 0 .725-.883q.057-.1.192-.286a7 7 0 0 0 .577-1.241h.374q-.067.43-.147.812-.328 1.683-.453 2.805-.022.238-.046.442l-4.233-.131q-5.456 0-6.474.107-.317.024-.668.024Z" data-name="Path 163"/><path fill="#ffe900" d="M3.344 0h39.981c0 .07.01.139.009.209-.01.59-.016 1.18-.034 1.77-.029.944-.054 1.889-.1 2.832q-.092 1.729-.226 3.456-.1 1.367-.255 2.731a84 84 0 0 1-.385 3.034q-.26 1.749-.579 3.49a58 58 0 0 1-.874 3.921 52 52 0 0 1-1.568 5.068 41 41 0 0 1-1.8 4.171 32.7 32.7 0 0 1-2.691 4.482 26.4 26.4 0 0 1-3.808 4.266 24 24 0 0 1-4.65 3.27 26 26 0 0 1-2.62 1.221.2.2 0 0 1-.171-.008c-.266-.126-.537-.245-.8-.373a28 28 0 0 1-3.769-2.19 27.6 27.6 0 0 1-3.434-2.806 29.6 29.6 0 0 1-3.725-4.361 36 36 0 0 1-3.221-5.643 45 45 0 0 1-1.764-4.456 54 54 0 0 1-1.252-4.3 57 57 0 0 1-.857-4.013 150 150 0 0 1-.5-3.06c-.112-.75-.2-1.505-.282-2.259q-.125-1.094-.229-2.19a81 81 0 0 1-.151-1.912 91 91 0 0 1-.12-2c-.039-.844-.065-1.688-.1-2.532-.008-.215-.018-.429-.021-.644q0-.59-.004-1.174" data-name="Path 164"/><path fill="#e41829" d="m22.755 31.979-3.176 6.017-.035-.012 1.527-8.064-2.882.47-.015-.027q.067-.054.136-.105a16.4 16.4 0 0 0 2.632-2.376 19 19 0 0 0 2.737-4.014 25 25 0 0 0 1.5-3.592c.257-.767.479-1.546.674-2.332a41 41 0 0 0 .54-2.535.23.23 0 0 1 .057-.121c.019.127.046.253.056.381.037.473.082.946.1 1.42s.015.96-.008 1.439a18.8 18.8 0 0 1-.669 4.086 24 24 0 0 1-1.117 3.161.47.47 0 0 0-.037.261c.059.415.123.83.166 1.247q.07.656.1 1.315c.022.484.028.969.029 1.454a20 20 0 0 1-.112 2.02 22 22 0 0 1-.274 1.881 21 21 0 0 1-1.283 4.266c-.236.561-.505 1.108-.76 1.661a.24.24 0 0 1-.1.113q.038-.25.077-.5c.135-.839.24-1.682.3-2.529.059-.778.089-1.557.072-2.338a21 21 0 0 0-.206-2.524 1 1 0 0 0-.034-.125" data-name="Path 165"/><path fill="#004085" d="m32.092 32.828-1.48-.241c.074.486.174.948.259 1.412s.178.942.267 1.413.176.927.247 1.4c-.3-.507-.566-1.029-.842-1.546s-.543-1.03-.829-1.542a13.1 13.1 0 0 0 .079 4.175 1 1 0 0 1-.051-.074 11.7 11.7 0 0 1-1.24-6.066c.025-.394.079-.785.127-1.177a.46.46 0 0 0-.033-.246 12 12 0 0 1-.726-2.266 9.6 9.6 0 0 1-.187-2.772 2 2 0 0 1 .083-.433c.012.053.026.1.036.158a18 18 0 0 0 .6 2.366 12.5 12.5 0 0 0 1.4 2.975 9.2 9.2 0 0 0 2.226 2.372l.08.061-.009.034" data-name="Path 166"/><path fill="#0087cc" d="M15.374 36.182a12.6 12.6 0 0 0 .1-4.156c-.207.328-.377.674-.559 1.013s-.365.689-.547 1.034l-.542 1.028-.039-.014.793-4.2c-.511.059-.991.169-1.513.232.049-.046.073-.074.1-.095a9.2 9.2 0 0 0 2.346-2.562 12.4 12.4 0 0 0 1.172-2.475 17 17 0 0 0 .676-2.563.8.8 0 0 1 .087-.259c.019.165.043.329.055.495a9 9 0 0 1 0 1.394 10.2 10.2 0 0 1-.349 1.959 13 13 0 0 1-.573 1.624.4.4 0 0 0-.029.233 12 12 0 0 1 .137 2.616 11.4 11.4 0 0 1-.573 3.009 12.5 12.5 0 0 1-.624 1.525q-.042.083-.089.166l-.03-.009" data-name="Path 167"/><path fill="#e41829" d="M22.731 23.495a2.2 2.2 0 0 1-.089.615 2 2 0 0 1-.057.154.655.655 0 0 1-.96.359 1.9 1.9 0 0 1-.7-.58 4.8 4.8 0 0 1-1.045-2.816 1.8 1.8 0 0 1 .167-.9.65.65 0 0 1 .5-.386.7.7 0 0 1 .366.054 1.6 1.6 0 0 1 .584.41 4.3 4.3 0 0 1 .836 1.3 5 5 0 0 1 .393 1.792" data-name="Path 168"/><path fill="#2a9a45" d="M17.7 5.216a3 3 0 0 1 .95 2.166 2.6 2.6 0 0 1-.182.921 1.1 1.1 0 0 1-.291.431.56.56 0 0 1-.775 0 1.06 1.06 0 0 1-.3-.493 3.13 3.13 0 0 1 .51-2.921c.023-.031.051-.059.088-.1" data-name="Path 169"/><path fill="#2a9a45" d="M19.01 9.325a3.3 3.3 0 0 1 1.106.719 3.07 3.07 0 0 1 .885 1.777.9.9 0 0 1-.07.512.55.55 0 0 1-.629.318 1.33 1.33 0 0 1-.707-.453 2.77 2.77 0 0 1-.664-2.535c.02-.107.048-.212.078-.34" data-name="Path 170"/><path fill="#2a9a45" d="M20.457 17.349c.008-.135.009-.279.026-.42a3 3 0 0 1 .5-1.38 2.66 2.66 0 0 1 1.136-.923 1.04 1.04 0 0 1 .5-.083.578.578 0 0 1 .525.722 1.5 1.5 0 0 1-.2.515 3.12 3.12 0 0 1-2.275 1.568l-.162.023c-.009 0-.018-.007-.048-.02" data-name="Path 171"/><path fill="#2a9a45" d="M12.909 11.822c.064-.119.119-.229.181-.335a2.96 2.96 0 0 1 1.131-1.13 2.7 2.7 0 0 1 1.024-.311 1.6 1.6 0 0 1 .622.038.594.594 0 0 1 .344.984 1.7 1.7 0 0 1-.49.435 3.06 3.06 0 0 1-2.069.5 6 6 0 0 1-.6-.121 1 1 0 0 1-.142-.055" data-name="Path 172"/><path fill="#2a9a45" d="M11.991 13.783a3.3 3.3 0 0 1 .8-.409 2.7 2.7 0 0 1 1.013-.166 2.5 2.5 0 0 1 1.511.531.8.8 0 0 1 .276.4.52.52 0 0 1-.145.547.94.94 0 0 1-.564.254 3.1 3.1 0 0 1-2.676-.907 4 4 0 0 1-.185-.2.4.4 0 0 1-.032-.055" data-name="Path 173"/><path fill="#2a9a45" d="M22.016 8.203c.073.084.142.154.2.232a3.08 3.08 0 0 1 .672 1.912 2.7 2.7 0 0 1-.157 1 1.2 1.2 0 0 1-.212.339.54.54 0 0 1-.731.082 1.12 1.12 0 0 1-.408-.56 2.69 2.69 0 0 1 .235-2.468c.087-.145.191-.281.289-.418a1 1 0 0 1 .111-.118" data-name="Path 174"/><path fill="#2a9a45" d="M14.835 6.026A2.89 2.89 0 0 1 16.61 8.17a2 2 0 0 1 .025.655.84.84 0 0 1-.184.435.53.53 0 0 1-.581.171 1.06 1.06 0 0 1-.552-.416 3.1 3.1 0 0 1-.651-1.57 3.3 3.3 0 0 1 .133-1.346 1 1 0 0 1 .035-.073" data-name="Path 175"/><path fill="#2a9a45" d="M17.033 17.271a.5.5 0 0 1 0-.11 3 3 0 0 1 1.107-1.716 2.33 2.33 0 0 1 1.271-.482 1 1 0 0 1 .31.034.554.554 0 0 1 .408.73 1.2 1.2 0 0 1-.292.5 3.16 3.16 0 0 1-2.8 1.044" data-name="Path 176"/><path fill="#2a9a45" d="M12.877 17.991a1 1 0 0 1 .022-.133 3.2 3.2 0 0 1 .707-1.337 2.54 2.54 0 0 1 1.6-.834 1.2 1.2 0 0 1 .313.01.57.57 0 0 1 .478.74 1.2 1.2 0 0 1-.269.479 3.08 3.08 0 0 1-1.786 1.045 3.5 3.5 0 0 1-1.061.031" data-name="Path 177"/><path fill="#2a9a45" d="M16.178 13.367a3.2 3.2 0 0 1 .535-.474 2.75 2.75 0 0 1 1.231-.517 2.6 2.6 0 0 1 1.369.152.93.93 0 0 1 .406.3.575.575 0 0 1-.133.833 1.6 1.6 0 0 1-.622.284 3.14 3.14 0 0 1-2.715-.515c-.02-.014-.038-.032-.071-.061" data-name="Path 178"/><path fill="#2a9a45" d="M36.586 21.156a1 1 0 0 1-.12-.011 3.12 3.12 0 0 1-2.229-1.895 1.2 1.2 0 0 1-.1-.51.578.578 0 0 1 .735-.573 1.74 1.74 0 0 1 .757.408 2.6 2.6 0 0 1 .945 1.764c.027.237.021.478.028.718a1 1 0 0 1-.013.1" data-name="Path 179"/><path fill="#2a9a45" d="M38.091 15.65c-.046.1-.084.192-.128.28a3.1 3.1 0 0 1-2.154 1.7 1.2 1.2 0 0 1-.548.012.565.565 0 0 1-.449-.72 1.4 1.4 0 0 1 .439-.666 2.7 2.7 0 0 1 2.288-.718c.138.017.275.044.413.069a1 1 0 0 1 .14.044" data-name="Path 180"/><path fill="#2a9a45" d="M24.951 4.737a.4.4 0 0 1 .025.066 3.1 3.1 0 0 1-.117 1.625 2.53 2.53 0 0 1-.989 1.248.88.88 0 0 1-.507.16.53.53 0 0 1-.538-.43 1 1 0 0 1 .012-.505 3.02 3.02 0 0 1 1.804-2.064 4 4 0 0 1 .238-.09.3.3 0 0 1 .07 0" data-name="Path 181"/><path fill="#2a9a45" d="M30.023 10.011a3.1 3.1 0 0 1-.387.976 3.02 3.02 0 0 1-1.541 1.274 1.14 1.14 0 0 1-.588.074.524.524 0 0 1-.46-.478.93.93 0 0 1 .146-.586 2.58 2.58 0 0 1 1.817-1.249 3.1 3.1 0 0 1 .954-.031.4.4 0 0 1 .06.02" data-name="Path 182"/><path fill="#2a9a45" d="M22.614 2.212a3.3 3.3 0 0 1 .534.724 2.6 2.6 0 0 1 .333 1.468 2.4 2.4 0 0 1-.216.866.9.9 0 0 1-.376.434.535.535 0 0 1-.647-.091.9.9 0 0 1-.252-.4 3.02 3.02 0 0 1 .543-2.929l.04-.045a.3.3 0 0 1 .042-.024" data-name="Path 183"/><path fill="#2a9a45" d="M25.347 8.419a1 1 0 0 1 .08.046 2.9 2.9 0 0 1 1.1 1.766 2.34 2.34 0 0 1-.074 1.168 1.2 1.2 0 0 1-.216.371.53.53 0 0 1-.706.09 1 1 0 0 1-.366-.445 3 3 0 0 1-.026-2.579c.062-.14.139-.273.212-.416" data-name="Path 184"/><path fill="#2a9a45" d="M30.902 15.97c-.185.031-.335.066-.488.078a3.03 3.03 0 0 1-2.432-.824 1.4 1.4 0 0 1-.231-.292.582.582 0 0 1 .465-.922 2.1 2.1 0 0 1 .983.139 2.7 2.7 0 0 1 1.52 1.41c.063.124.114.253.183.41" data-name="Path 185"/><path fill="#2a9a45" d="M29.081 1.096q.054.079.094.143a2.7 2.7 0 0 1 .132 2.555 1.25 1.25 0 0 1-.374.515.6.6 0 0 1-.923-.181 1.3 1.3 0 0 1-.172-.538 2.36 2.36 0 0 1 .593-1.911 7 7 0 0 1 .53-.505 1 1 0 0 1 .12-.078" data-name="Path 186"/><path fill="#2a9a45" d="M32.922 10.685c.015.085.035.161.041.238a2.8 2.8 0 0 1-.251 1.5 2.64 2.64 0 0 1-.885 1.037.78.78 0 0 1-.551.149.58.58 0 0 1-.5-.47 1.2 1.2 0 0 1 .038-.65 2.4 2.4 0 0 1 1.364-1.56 2.8 2.8 0 0 1 .746-.246" data-name="Path 187"/><path fill="#2a9a45" d="M35.391 15.028a2.8 2.8 0 0 1-.929.332 2.7 2.7 0 0 1-1.933-.4 1.1 1.1 0 0 1-.333-.319.593.593 0 0 1 .194-.88 1.24 1.24 0 0 1 .616-.161 2.4 2.4 0 0 1 1.932.823 3 3 0 0 1 .453.609" data-name="Path 188"/><path fill="#2a9a45" d="M30.905 4.044c.027.156.058.292.072.43a2.69 2.69 0 0 1-.9 2.355.88.88 0 0 1-.563.253.57.57 0 0 1-.574-.373 1.1 1.1 0 0 1-.045-.62 2.36 2.36 0 0 1 1.1-1.641 3.3 3.3 0 0 1 .909-.4" data-name="Path 189"/><path fill="#2a9a45" d="M37.459 8.998c-.015.051-.025.1-.041.143a2.7 2.7 0 0 1-2.05 1.8 1 1 0 0 1-.562-.023.583.583 0 0 1-.386-.691 1.2 1.2 0 0 1 .3-.546 2.34 2.34 0 0 1 1.651-.8 3.4 3.4 0 0 1 1.024.093c.019 0 .036.013.068.024" data-name="Path 190"/><path fill="#2a9a45" d="M33.644 6.375a2.5 2.5 0 0 1 .415.633 2.68 2.68 0 0 1 .049 2.233.94.94 0 0 1-.3.4.58.58 0 0 1-.766-.031.97.97 0 0 1-.267-.41 2.3 2.3 0 0 1 .023-1.668 3.1 3.1 0 0 1 .785-1.118 1 1 0 0 1 .063-.042" data-name="Path 191"/><path fill="#2a9a45" d="M31.926 8.666a2.9 2.9 0 0 1-.682.414 2.7 2.7 0 0 1-2.155 0 1 1 0 0 1-.43-.317.58.58 0 0 1 .044-.8 1.2 1.2 0 0 1 .637-.308 2.4 2.4 0 0 1 2.04.5 4 4 0 0 1 .546.517" data-name="Path 192"/><path fill="#2a9a45" d="M18.576 4.601a2.9 2.9 0 0 1 .891-.093 2.5 2.5 0 0 1 1.3.408 2.24 2.24 0 0 1 .752.778.75.75 0 0 1 .1.4.55.55 0 0 1-.567.506 1.8 1.8 0 0 1-.783-.171 2.93 2.93 0 0 1-1.66-1.712 1 1 0 0 1-.023-.071.3.3 0 0 1 0-.049" data-name="Path 193"/><path fill="#2a9a45" d="M38.561 11.652a2.6 2.6 0 0 1-2 1.527 1.5 1.5 0 0 1-.594 0 .614.614 0 0 1-.44-.881 1.37 1.37 0 0 1 .494-.551 2.14 2.14 0 0 1 1.632-.38 3 3 0 0 1 .759.219c.045.019.089.042.151.071" data-name="Path 194"/><path fill="#2a9a45" d="M22.269 13.048a3.1 3.1 0 0 1 .709-.444 2.53 2.53 0 0 1 1.222-.242 2.4 2.4 0 0 1 1.056.3.9.9 0 0 1 .329.3.514.514 0 0 1-.094.7 1.1 1.1 0 0 1-.571.243 2.9 2.9 0 0 1-2.59-.795c-.018-.017-.032-.037-.061-.07" data-name="Path 195"/><path fill="#2a9a45" d="M31.476 18.867a2.7 2.7 0 0 1-.692.061 2.86 2.86 0 0 1-1.405-.416 2.6 2.6 0 0 1-.712-.613 1 1 0 0 1-.144-.244.543.543 0 0 1 .484-.794 1.8 1.8 0 0 1 .793.119 2.58 2.58 0 0 1 1.548 1.533c.046.11.081.224.128.356" data-name="Path 196"/><path fill="#2a9a45" d="M26.87 4.787a2 2 0 0 1 .5.428 2.48 2.48 0 0 1 .615 2.028.85.85 0 0 1-.174.426.53.53 0 0 1-.655.175.93.93 0 0 1-.425-.389 2.2 2.2 0 0 1-.238-1.872 3 3 0 0 1 .319-.709c.015-.025.034-.048.061-.086" data-name="Path 197"/><path fill="#2a9a45" d="M33.085 20.539c-.067-.062-.126-.113-.182-.169a2.74 2.74 0 0 1-.833-2.27 1.2 1.2 0 0 1 .121-.445.507.507 0 0 1 .792-.2 1 1 0 0 1 .294.335 2.36 2.36 0 0 1 .124 2.174c-.064.156-.15.3-.229.454a1 1 0 0 1-.087.117" data-name="Path 198"/><path fill="#2a9a45" d="M16.544 19.327c.062-.119.116-.236.18-.346a2.45 2.45 0 0 1 1.093-1.03 2.25 2.25 0 0 1 .985-.212.8.8 0 0 1 .452.134.466.466 0 0 1 .181.566 1 1 0 0 1-.343.444 2.66 2.66 0 0 1-1.926.587 5 5 0 0 1-.529-.095.5.5 0 0 1-.095-.048" data-name="Path 199"/><path fill="#1e3285" d="M31.242 27.913a2.56 2.56 0 0 1-.575 1.564 1.3 1.3 0 0 1-.329.278.346.346 0 0 1-.547-.209 1.4 1.4 0 0 1-.06-.472 2.48 2.48 0 0 1 .53-1.41 1.4 1.4 0 0 1 .341-.311.361.361 0 0 1 .585.223 2.4 2.4 0 0 1 .055.336" data-name="Path 200"/><path fill="#0087cc" d="M15.466 27.476a2.5 2.5 0 0 1-.07.354.355.355 0 0 1-.559.214 1.15 1.15 0 0 1-.383-.354 2.6 2.6 0 0 1-.5-1.436.93.93 0 0 1 .085-.467.34.34 0 0 1 .488-.174 1 1 0 0 1 .359.289 2.53 2.53 0 0 1 .559 1.337l.025.237" data-name="Path 201"/><path d="m25.773 49.838-.453-.781c-.081.02-.147.041-.216.053a1.08 1.08 0 0 1-1-.375 1.27 1.27 0 0 1-.32-.67 2 2 0 0 0-.087-.319.29.29 0 0 0-.314-.207c-.2.011-.41.013-.635.019v.547a.245.245 0 0 1-.3.247.46.46 0 0 1-.348-.212.75.75 0 0 1-.093-.664.325.325 0 0 1 .359-.255h1.021c.2 0 .251.039.319.23l.052.139.088-.162a1.15 1.15 0 0 1 .347-.411.53.53 0 0 1 .324-.1c.19 0 .38-.005.586-.009a6 6 0 0 0-.05-.7l-3.775.042c0 .064-.01.117-.01.17q.001.83-.005 1.66c0 .457-.009.915-.014 1.372 0 .03 0 .06-.008.115-.089-.049-.167-.087-.239-.135a.13.13 0 0 1-.035-.092c-.01-.125-.014-.251-.02-.376l-.038-.826c-.054.036-.089.056-.122.081a1.3 1.3 0 0 1-.653.288.8.8 0 0 1-.842-.606 1 1 0 0 1-.009-.492.65.65 0 0 1 .5-.507.61.61 0 0 1 .666.2c.047.058.09.119.139.184a.24.24 0 0 1-.245.04.69.69 0 0 0-.76.264l-.026.037a.325.325 0 0 0 .2.518.77.77 0 0 0 .445-.021 1.37 1.37 0 0 0 .585-.435.43.43 0 0 0 .119-.326c-.011-.276 0-.553-.008-.83 0-.09-.012-.179-.018-.266-.149-.032-2.221.009-2.332.047l.03 3.338a1.7 1.7 0 0 1-.3-.237.18.18 0 0 1-.029-.111v-.407l-.022-2.429c0-.044 0-.089-.006-.146h-.564l.045-.347.593-.018a4 4 0 0 1-.163-.438 1.1 1.1 0 0 1 .128-.9 1.06 1.06 0 0 1 1.091-.414 1.7 1.7 0 0 1 .974.592c.219.248.412.518.617.779-.057.074-.093.067-.142.014-.122-.134-.243-.269-.374-.393-.149-.142-.308-.274-.466-.406a1.4 1.4 0 0 0-.822-.3.68.68 0 0 0-.663.333 1 1 0 0 0-.135.835 1 1 0 0 0 .065.152.23.23 0 0 0 .24.14c.553-.01 1.106-.011 1.659-.017q1.651-.015 3.3-.033.874-.012 1.749-.03.573-.011 1.145-.03.858-.03 1.717-.062a.4.4 0 0 0 .068-.017.4.4 0 0 0-.035-.082q-.4-.51-.8-1.02a.2.2 0 0 0-.2-.09 1.05 1.05 0 0 1-.462-.034.25.25 0 0 1-.2-.265.264.264 0 0 1 .221-.235.43.43 0 0 1 .486.175q.541.716 1.075 1.437a.28.28 0 0 0 .261.138 4 4 0 0 1 .38.015v.31h-.564c-.007.082-.017.146-.018.21q-.007.598-.016 1.192-.013.739-.031 1.478c0 .128-.015.256-.024.4a.47.47 0 0 1-.187-.358c-.016-.557-.047-1.114-.073-1.671q-.002-.029-.01-.063a1.1 1.1 0 0 0-.424-.084 3 3 0 0 0-.736.031.25.25 0 0 0-.189.131 1.07 1.07 0 0 0-.123.714 1.67 1.67 0 0 0 .613 1.122.2.2 0 0 0 .044.021c-.029.087-.069.065-.1.042a1.6 1.6 0 0 1-.564-.615 2.7 2.7 0 0 1-.235-.915 1 1 0 0 1 .031-.3.63.63 0 0 1 .42-.476 1.6 1.6 0 0 1 .425-.09c.255-.014.512 0 .768 0h.1v-.733c-.046 0-.094-.011-.142-.012-.3-.006-.6-.008-.9-.014l-1.447-.03h-.184v1.092c-.087.01-.155.021-.224.025q-.324.018-.647.031a.44.44 0 0 0-.276.107.9.9 0 0 0-.075 1.27.59.59 0 0 0 .608.167c.117-.031.13-.054.135-.179.006-.154.014-.309.022-.473h.675l-.121.393c-.033.105-.063.212-.1.315a.185.185 0 0 0 .05.227c.229.233.448.475.671.714a.4.4 0 0 1 .039.062Z" data-name="Path 202"/><path d="M7.651 32.337a25 25 0 0 1-2.791 1.47l-.126-.346a23 23 0 0 0 2.795-1.441l-.5-.795c-.316.161-.615.342-.921.511s-.6.341-.906.511l-.939.526-.028-.3c-.006-.066.046-.082.09-.106l.611-.329c.03-.016.059-.036.1-.061l-.069-.081c-.109-.131-.224-.257-.326-.393a.7.7 0 0 1-.135-.468 1.45 1.45 0 0 1 .336-.915 1 1 0 0 1 .085-.076c.032.04.061.073.086.108a1.06 1.06 0 0 0 .35.326.567.567 0 0 0 .85-.358.2.2 0 0 0-.009-.144q-.286-.565-.58-1.126c0-.008-.015-.013-.04-.033l-3.191 1.786c.024-.17.038-.314.069-.454.009-.039.061-.077.1-.1.2-.111.409-.216.614-.323.066-.035.13-.072.224-.124l-.148-.056c-.172-.068-.351-.125-.516-.207a.814.814 0 0 1-.351-1.053 1.3 1.3 0 0 1 .3-.447.52.52 0 0 1 .336-.169c.041-.168.078-.335.123-.5a1.7 1.7 0 0 1 .111-.327.345.345 0 0 1 .582-.121.94.94 0 0 1 .254.333c.1.2.2.407.3.61.024.048.051.095.087.162l.458-.285c-.284-.691-.58-1.371-.865-2.05a7.8 7.8 0 0 0-1.7.389c-.555.158-1.1.333-1.665.5a.65.65 0 0 1 .062-.321c.011-.032.067-.054.107-.069q.504-.179 1.01-.355.068-.024.143-.055c-.024-.079-.088-.105-.135-.146a1.2 1.2 0 0 1-.455-.79 1.09 1.09 0 0 1 .58-1.1.6.6 0 0 1 .872.349.2.2 0 0 1 .017.1q-.05.436-.106.873h-.034q-.04-.21-.077-.421a.87.87 0 0 0-.162-.417.45.45 0 0 0-.31-.194.414.414 0 0 0-.5.381.76.76 0 0 0 .163.634 2.4 2.4 0 0 0 .585.538.24.24 0 0 0 .2.045q.664-.17 1.329-.338a.2.2 0 0 0 .034-.02c-.11-.459-.231-.919-.329-1.384s-.171-.927-.259-1.411L0 22.863c.051-.114.093-.2.132-.3.024-.055.069-.063.121-.072q.772-.133 1.543-.269l1.424-.25c.039-.007.076-.021.115-.032a3 3 0 0 0 0-.276 3 3 0 0 0-.058-.279l.406-.047.1.621c.054-.031.095-.053.134-.078a1.85 1.85 0 0 1 .742-.278.89.89 0 0 1 .994.645 1.7 1.7 0 0 1 .011.82 2.9 2.9 0 0 1-.443 1.049 9 9 0 0 1-.759.975 1 1 0 0 1-.089.1.14.14 0 0 0-.033.176c.122.3.233.611.361.911a33.7 33.7 0 0 0 3.213 5.862q.114.169.235.333a.18.18 0 0 1 .033.168c-.027.09-.05.182-.081.3-.173-.2-.28-.413-.443-.607m-3.419-7.377a1 1 0 0 0 .1-.086 6.7 6.7 0 0 0 .869-1.173 1.56 1.56 0 0 0 .2-.928 1.07 1.07 0 0 0-.367-.737.65.65 0 0 0-.688-.131 1.8 1.8 0 0 0-.478.282.23.23 0 0 0-.1.255c.126.672.242 1.345.363 2.017.028.158.059.315.094.5m-.348 3.438-.26.233c-.143-.152-.267-.3-.4-.426a.54.54 0 0 0-.4-.135.3.3 0 0 0-.315.266.57.57 0 0 0 .2.556 1.74 1.74 0 0 0 .858.416.82.82 0 0 0 .606-.1c.35-.217.717-.405 1.077-.607.051-.028.1-.061.155-.1l-.3-.615c-.265.144-.494.312-.751.451-.02-.068-.035-.116-.048-.164a2.7 2.7 0 0 0-.425-.877.43.43 0 0 0-.269-.18.21.21 0 0 0-.236.092.57.57 0 0 0 .024.566l.5.613m2.5 1.852a1 1 0 0 1-.079.13 2.5 2.5 0 0 1-.27.321.57.57 0 0 1-.534.128 1.5 1.5 0 0 1-.5-.243q-.196-.136-.279.087a.6.6 0 0 0 .027.511 1.36 1.36 0 0 0 .56.554.21.21 0 0 0 .237-.009c.382-.232.769-.456 1.154-.684q.063-.038.128-.081l-.446-.714" data-name="Path 203"/><path d="m43.696 25.1-.731-.238c-.018.05-.033.081-.041.114a15 15 0 0 1-.759 2.148 41 41 0 0 0 3.14 1.576c-.035.094-.063.178-.1.259a1.08 1.08 0 0 0-.066.664.486.486 0 0 0 .8.307.66.66 0 0 0 .29-.6c-.007-.149-.035-.3-.054-.456l.4-.1a1.65 1.65 0 0 1-.384 1.114.96.96 0 0 1-.547.324.56.56 0 0 1-.552-.208.99.99 0 0 1-.163-1.021 1.5 1.5 0 0 1 .185-.282.5.5 0 0 0-.085-.018 1 1 0 0 0-.089.01 1.03 1.03 0 0 1-.7-.139c-.2-.128-.414-.222-.64-.341l-.547 1c.2.133.432.236.521.5a1.04 1.04 0 0 1-.571.2c-.33.021-.339.018-.394-.3a.42.42 0 0 0-.254-.337c-.235-.113-.459-.249-.688-.375-.065-.036-.132-.07-.217-.114-.184.36-.362.711-.535 1.087l2.821 1.665c-.117.058-.211.1-.3.152-.074.039-.125-.009-.179-.042l-.79-.5c-.093-.059-.187-.116-.294-.182a2.9 2.9 0 0 1-.693.87l.011.028.18-.018a.85.85 0 0 1 .732.24.893.893 0 0 1-.021 1.315 1.62 1.62 0 0 1-1.1.42 2 2 0 0 1-.4-.035.5.5 0 0 1-.183-.1c.058-.037.113-.014.168-.006a1.44 1.44 0 0 0 .893-.144 1.04 1.04 0 0 0 .461-.462.7.7 0 0 0-.094-.778.73.73 0 0 0-.746-.289.27.27 0 0 0-.245.23 3 3 0 0 1-.115.342.13.13 0 0 1-.136.094c-.064 0-.129.007-.218.013l.068-.155a1 1 0 0 0 .048-.763.41.41 0 0 0-.334-.29.485.485 0 0 0-.608.426 6 6 0 0 0 0 .58l-.462.1a.7.7 0 0 1 .015-.352 1.4 1.4 0 0 1 .268-.68.91.91 0 0 1 .943-.273.72.72 0 0 1 .44.466c.015.042.027.085.046.144a.7.7 0 0 0 .425-.195.94.94 0 0 0 .218-.744c0-.04-.016-.079-.019-.119a.33.33 0 0 0-.2-.288c-.193-.1-.377-.211-.566-.316a2 2 0 0 0-.172-.088c-.067.119-.135.224-.187.336a.294.294 0 0 1-.3.2 2 2 0 0 0-.286.033c.045-.077.073-.128.1-.177a24 24 0 0 0 1.283-2.305 20.5 20.5 0 0 0 1.714-5.117c.107-.562.177-1.131.265-1.7l.022-.13.328.1-.072.43c.058.019.109.039.161.052.749.193 1.5.389 2.262.515.212.035.428.042.643.056a.45.45 0 0 0 .319-.117q.35-.286.687-.587c.156-.141.3-.3.455-.449l.266.166-1.381 1.051a.1.1 0 0 0 0 .028.28.28 0 0 1-.362.331.1.1 0 0 1-.042-.016 1.4 1.4 0 0 0-.6-.172c-.232-.044-.465-.08-.7-.119-.029 0-.059 0-.106-.007l-.243 1.213h.2c.163.01.288.085.312.193.032.147-.06.238-.163.314a.8.8 0 0 1-.4.154c-.238.023-.351-.109-.3-.34.005-.024.013-.046.025-.089l-1.363-.353-.228.894a12 12 0 0 0 1.413.511c.481.141.968.266 1.471.4l-.174.276-1.769-.58c-.022.016-.035.02-.038.028a4 4 0 0 0-.329 1 1 1 0 0 0 .011.3.52.52 0 0 0 .485.46 2.2 2.2 0 0 0 .645-.019c.179-.025.356-.061.535-.091.028 0 .057-.006.113-.012a1 1 0 0 1-.071.048 3.4 3.4 0 0 1-1.131.3 1.1 1.1 0 0 1-.371-.043.72.72 0 0 1-.523-.652.94.94 0 0 1 .047-.46q.137-.384.267-.769c.013-.037.023-.076.04-.136m-.364-1.761c.441.122.879.233 1.331.345l.275-1.2-1.355-.334zm-.037 4.757c-.424-.221-.828-.435-1.246-.638l-.49 1.049 1.241.63.5-1.04" data-name="Path 204"/></g></svg>